<svg width="27" height="27" viewBox="0 0 27 27" fill="none" xmlns="http://www.w3.org/2000/svg">
<path d="M16.875 20.8125V6.1875C16.875 5.66476 16.875 5.40344 16.9182 5.1861C17.0958 4.29354 17.793 3.59577 18.6855 3.41823C18.9029 3.375 19.1648 3.375 19.6875 3.375C20.2102 3.375 20.4716 3.375 20.689 3.41823C21.5815 3.59577 22.2796 4.29354 22.4572 5.1861C22.5 5.40153 22.5 5.66016 22.5 6.17374V6.1875V20.8125V20.8263C22.5 21.3398 22.5 21.5985 22.4572 21.814C22.2796 22.7065 21.5815 23.4042 20.689 23.5817C20.4716 23.625 20.2097 23.625 19.687 23.625C19.1643 23.625 18.9029 23.625 18.6855 23.5817C17.793 23.4042 17.0958 22.7065 16.9182 21.814C16.875 21.5966 16.875 21.3352 16.875 20.8125Z" fill="#C6C6C6"/>
<path d="M4.5 20.8125V6.1875C4.5 5.66476 4.5 5.40344 4.54323 5.1861C4.72077 4.29354 5.41799 3.59577 6.31055 3.41823C6.52789 3.375 6.78976 3.375 7.3125 3.375C7.83524 3.375 8.0966 3.375 8.31395 3.41823C9.20651 3.59577 9.90461 4.29354 10.0822 5.1861C10.125 5.40153 10.125 5.66016 10.125 6.17374V6.1875V20.8125V20.8263C10.125 21.3398 10.125 21.5985 10.0822 21.814C9.90461 22.7065 9.20651 23.4042 8.31395 23.5817C8.09661 23.625 7.83473 23.625 7.312 23.625C6.78927 23.625 6.52789 23.625 6.31055 23.5817C5.41799 23.4042 4.72077 22.7065 4.54323 21.814C4.5 21.5966 4.5 21.3352 4.5 20.8125Z" fill="#C6C6C6"/>
<path d="M22.5 6.1875V20.8125M22.5 6.1875V6.17374M22.5 6.1875C22.5 6.18289 22.5 6.1783 22.5 6.17374M22.5 20.8125V20.8263M22.5 20.8125C22.5 20.8171 22.5 20.8217 22.5 20.8263M10.125 6.1875V20.8125M10.125 6.1875V6.17374M10.125 6.1875C10.125 6.18289 10.125 6.1783 10.125 6.17374M10.125 20.8125V20.8263M10.125 20.8125C10.125 20.8171 10.125 20.8217 10.125 20.8263M22.5 6.17374C22.5 5.66016 22.5 5.40153 22.4572 5.1861C22.2796 4.29354 21.5815 3.59577 20.689 3.41823C20.4716 3.375 20.2102 3.375 19.6875 3.375C19.1648 3.375 18.9029 3.375 18.6855 3.41823C17.793 3.59577 17.0958 4.29354 16.9182 5.1861C16.875 5.40344 16.875 5.66476 16.875 6.1875V20.8125C16.875 21.3352 16.875 21.5966 16.9182 21.814C17.0958 22.7065 17.793 23.4042 18.6855 23.5817C18.9029 23.625 19.1643 23.625 19.687 23.625C20.2097 23.625 20.4716 23.625 20.689 23.5817C21.5815 23.4042 22.2796 22.7065 22.4572 21.814C22.5 21.5985 22.5 21.3398 22.5 20.8263M10.125 6.17374C10.125 5.66016 10.125 5.40153 10.0822 5.1861C9.90461 4.29354 9.20651 3.59577 8.31395 3.41823C8.0966 3.375 7.83524 3.375 7.3125 3.375C6.78976 3.375 6.52789 3.375 6.31055 3.41823C5.41799 3.59577 4.72077 4.29354 4.54323 5.1861C4.5 5.40344 4.5 5.66476 4.5 6.1875V20.8125C4.5 21.3352 4.5 21.5966 4.54323 21.814C4.72077 22.7065 5.41799 23.4042 6.31055 23.5817C6.52789 23.625 6.78927 23.625 7.312 23.625C7.83473 23.625 8.09661 23.625 8.31395 23.5817C9.20651 23.4042 9.90461 22.7065 10.0822 21.814C10.125 21.5985 10.125 21.3398 10.125 20.8263"  stroke-width="2" stroke-linecap="round" stroke-linejoin="round"/>
</svg>
