<svg width="35" height="35" viewBox="0 0 35 35" fill="none" xmlns="http://www.w3.org/2000/svg">
<path d="M26.2499 15.4167V19.5836V19.5989C26.2499 22.2532 26.2499 23.5817 25.6916 24.3479C25.2038 25.0175 24.4545 25.4481 23.6303 25.5321C22.6853 25.6284 21.5345 24.9571 19.233 23.6146L15.6613 21.5311C13.3905 20.2065 12.2552 19.5442 11.8731 18.6817C11.5397 17.9293 11.5397 17.071 11.8731 16.3186C12.2552 15.4561 13.3905 14.7937 15.6613 13.4691L19.233 11.3856C21.5345 10.0431 22.6853 9.37183 23.6303 9.46816C24.4544 9.55217 25.2038 9.98278 25.6916 10.6523C26.2499 11.4186 26.2499 12.7471 26.2499 15.4014V15.4167Z"/>
<path d="M11.2083 7.29169C11.2083 6.7394 10.7605 6.29169 10.2083 6.29169C9.65597 6.29169 9.20825 6.7394 9.20825 7.29169L11.2083 7.29169ZM9.20825 27.7084C9.20825 28.2606 9.65597 28.7084 10.2083 28.7084C10.7605 28.7084 11.2083 28.2606 11.2083 27.7084H9.20825ZM19.233 23.6146L19.7369 22.7508V22.7508L19.233 23.6146ZM15.6613 21.5311L15.1575 22.3949L15.6613 21.5311ZM15.6613 13.4691L16.1652 14.3329L15.6613 13.4691ZM19.233 11.3856L18.7292 10.5218L19.233 11.3856ZM11.8731 18.6817L10.9588 19.0868L11.8731 18.6817ZM11.8731 16.3186L10.9588 15.9135L11.8731 16.3186ZM25.6916 24.3479L26.4999 24.9368L25.6916 24.3479ZM23.6303 25.5321L23.7317 26.5269L23.6303 25.5321ZM25.6916 10.6523L26.4999 10.0635L25.6916 10.6523ZM23.6303 9.46816L23.7317 8.47332L23.6303 9.46816ZM26.2499 19.5989H27.2499H26.2499ZM26.2499 15.4014H25.2499H26.2499ZM9.20825 7.29169L9.20825 27.7084H11.2083L11.2083 7.29169L9.20825 7.29169ZM25.2499 15.4167V19.5836H27.2499V15.4167H25.2499ZM19.7369 22.7508L16.1652 20.6673L15.1575 22.3949L18.7292 24.4784L19.7369 22.7508ZM16.1652 14.3329L19.7369 12.2494L18.7292 10.5218L15.1575 12.6053L16.1652 14.3329ZM16.1652 20.6673C15.0128 19.9951 14.2089 19.525 13.6396 19.119C13.0667 18.7103 12.8676 18.4577 12.7874 18.2766L10.9588 19.0868C11.2607 19.7682 11.8204 20.278 12.4783 20.7472C13.14 21.2191 14.0391 21.7425 15.1575 22.3949L16.1652 20.6673ZM15.1575 12.6053C14.0391 13.2577 13.1399 13.7811 12.4783 14.253C11.8204 14.7223 11.2607 15.2321 10.9588 15.9135L12.7874 16.7237C12.8676 16.5426 13.0667 16.2899 13.6397 15.8813C14.2089 15.4752 15.0128 15.0051 16.1652 14.3329L15.1575 12.6053ZM12.7874 18.2766C12.5683 17.7822 12.5683 17.2181 12.7874 16.7237L10.9588 15.9135C10.5111 16.9238 10.5111 18.0764 10.9588 19.0868L12.7874 18.2766ZM18.7292 24.4784C19.8629 25.1397 20.7726 25.6715 21.5175 26.0191C22.2575 26.3644 22.9842 26.6031 23.7317 26.5269L23.5289 24.5373C23.3314 24.5574 23.0103 24.5087 22.3632 24.2067C21.7212 23.9071 20.9047 23.432 19.7369 22.7508L18.7292 24.4784ZM24.8834 23.759C24.5627 24.1992 24.0703 24.4821 23.5289 24.5373L23.7317 26.5269C24.8386 26.4141 25.8449 25.8358 26.4999 24.9368L24.8834 23.759ZM19.7369 12.2494C20.9047 11.5682 21.7211 11.0931 22.3632 10.7935C23.0103 10.4916 23.3314 10.4429 23.5289 10.463L23.7317 8.47332C22.9842 8.39712 22.2575 8.63584 21.5175 8.9811C20.7726 9.32869 19.8629 9.86048 18.7292 10.5218L19.7369 12.2494ZM26.4999 10.0635C25.8449 9.16446 24.8386 8.58615 23.7317 8.47332L23.5289 10.463C24.0703 10.5182 24.5628 10.8011 24.8834 11.2412L26.4999 10.0635ZM25.2499 19.5836V19.5989H27.2499V19.5836H25.2499ZM25.2499 19.5989C25.2499 20.9458 25.2489 21.8869 25.1843 22.5899C25.1192 23.2984 24.9999 23.5992 24.8834 23.759L26.4999 24.9368C26.9417 24.3304 27.1015 23.5838 27.1759 22.7729C27.2509 21.9566 27.2499 20.9063 27.2499 19.5989L25.2499 19.5989ZM24.8834 11.2412C24.9999 11.401 25.1192 11.7018 25.1843 12.4103C25.2489 13.1134 25.2499 14.0546 25.2499 15.4014L27.2499 15.4014C27.2499 14.094 27.2509 13.0437 27.1759 12.2274C27.1015 11.4165 26.9417 10.6699 26.4999 10.0635L24.8834 11.2412ZM25.2499 15.4014V15.4167H27.2499V15.4014H25.2499ZM27.2499 15.4167C27.2499 15.4116 27.2499 15.4065 27.2499 15.4014L25.2499 15.4014C25.2499 15.4065 25.2499 15.4116 25.2499 15.4167H27.2499ZM25.2499 19.5836C25.2499 19.5887 25.2499 19.5938 25.2499 19.5989L27.2499 19.5989C27.2499 19.5938 27.2499 19.5887 27.2499 19.5836H25.2499Z"/>
</svg>
